<svg id="Capa_1" enable-background="new 0 0 511.856 511.856" height="512" viewBox="0 0 511.856 511.856" width="512" xmlns="http://www.w3.org/2000/svg"><g><path d="m176.928 377.961c0-118.593-33.301-134.839-43.508-136.993-15.594-3.287-29.668-9.347-41.827-18.011-16.339-11.636-26.648-22.909-31.511-34.462-10.74-25.51 7.707-49.534 32.196-49.534h36.667c27.854-15.784 53.198-19.438 75.374-10.85 31.845 12.332 44.476 45.825 46.696 52.447 1.584 3.514 3.229 6.937 4.919 10.275 22.433-35.423 53.69-63.084 89.562-83.473 7.202-4.093 16.359-1.574 20.453 5.628s1.574 16.359-5.628 20.453c-4.265 2.424-8.415 4.958-12.468 7.573 17.191 6.149 34.178 16.304 46.492 30.766 4.931 1.426 13.869 3.659 22.509 4.014 15.174.638 25.328 15.903 20.019 30.131-11.412 30.584-35.062 50.54-67.553 47.118-3.792 2.087-10.628 6.6-17.49 14.838 89.41 11.918 66.589 8.973 105.001 13.621 5.065-5.065 10.259-10.26 15.598-15.598 52.571-52.606 52.57-138.184-.003-190.768-49.455-49.466-127.99-52.553-181.022-8.841-6.182 5.072-7.476 6.522-35.476 34.556-27.383-27.416-29.244-29.443-35.45-34.534-53.469-44.073-131.962-40.277-181.048 8.819-52.573 52.584-52.574 138.163.001 190.772 63.321 63.318 107.144 107.159 137.497 137.533z"/><path d="m342.721 296.932c-9.868-.408-20.919-4.039-19.666-3.66-34.301-10.37-62.017-36.69-81.361-66.905-9.79-15.223-18.138-33.008-19.063-36.097-.062-.196-8.361-26.25-29.303-34.245-2.822-1.077-5.799-1.773-8.913-2.125.656 8.583 2.672 19.063 7.979 27.866 4.277 7.095 1.992 16.313-5.103 20.59-7.11 4.285-16.322 1.978-20.59-5.103-7.44-12.343-10.675-25.964-11.908-37.724-13.737 5.937-14.9 9.43-21.795 9.43h-40.72c-2.045 0-3.911.969-4.754 2.469-2.361 4.196 3.366 14.196 21.475 27.093 8.78 6.256 19.078 10.66 30.612 13.09 12.758 2.693 30.931 11.594 45.086 38.71 14.75 28.258 22.23 71.201 22.23 127.637v55.507c41.294 41.332 39.02 39.293 41.602 40.76 2.28 1.295 4.327 2.062 7.398 1.997 2.57.058 4.757-.53 6.774-1.646 3.718-1.884-10.114 11.188 167.172-166.119-11.745-1.418 4.771.729-87.152-11.525z"/><path d="m369.517 222.794c15.171 2.649 26.923-3.439 35.035-18.11-12.904-1.927-23.466-5.608-24.027-5.806-2.79-.982-5.226-2.767-7.004-5.13-13.18-17.521-37.204-27.137-56.214-29.417-18.114 16.4-32.751 35.06-43.63 55.618 15.295 20.716 32.27 33.76 46.753 40.278 17.342-27.558 40.198-36.314 41.289-36.719 2.491-.924 5.181-1.17 7.798-.714z"/></g></svg>