<svg clip-rule="evenodd" fill-rule="evenodd" height="512" image-rendering="optimizeQuality" shape-rendering="geometricPrecision" text-rendering="geometricPrecision" viewBox="0 0 512 512" width="512" xmlns="http://www.w3.org/2000/svg"><g id="Layer_x0020_1"><path d="m346 406c-15 0-28-5-40-15l51-51c7-7-3-16-10-10l-51 51-27-27 51-52c6-7-4-16-10-10l-51 52-28-28 51-51c7-7-3-16-10-10l-51 51-27-27 51-52c6-7-4-16-10-10l-51 52-28-28 51-51c7-7-3-16-10-10l-51 51-19-19 84-85 177 176c22 22 23 62 0 85-12 12-27 18-42 18z"/><path d="m103 213c-2 0-4-1-5-2l-25-25c-1-1-2-3-2-5s1-4 2-5l103-102c3-3 7-3 10 0l24 24c3 3 3 7 0 10l-102 103c-1 1-3 2-5 2z"/><path d="m99 130-40-40 31-31 40 41z"/><path d="m27 100c-2 0-4-1-5-2l-20-21c-3-3-3-7 0-10l65-65c3-3 7-3 10 0l20 20c3 3 3 7 0 10l-65 66c-1 1-3 2-5 2z"/><path d="m400 422c-6 0-11-2-15-6-1 0-1 0-1 0l-4-5c6-3 12-8 18-13 5-5 9-11 13-18l4 5c4 3 6 9 7 14 0 6-3 13-7 17-5 4-10 6-15 6z"/><path d="m505 512c-2 0-4-1-5-2l-95-95c-3-3-3-7 0-10s7-3 10 0l95 95c3 3 3 7 0 10-1 1-3 2-5 2z"/></g></svg>