<svg width="63" height="63" viewBox="0 0 63 63" fill="none" xmlns="http://www.w3.org/2000/svg">
<g clip-path="url(#clip0_10_786)">
<path d="M21.7766 46.5201C21.7766 31.9235 17.6778 29.9239 16.4215 29.6588C14.5022 29.2542 12.77 28.5084 11.2734 27.442C9.26237 26.0098 7.99353 24.6223 7.39498 23.2003C6.07309 20.0605 8.34357 17.1036 11.3577 17.1036H15.8707C19.2991 15.1609 22.4184 14.7112 25.1479 15.7682C29.0674 17.286 30.6221 21.4084 30.8953 22.2234C31.0903 22.656 31.2927 23.0773 31.5007 23.4881C34.2618 19.1282 38.109 15.7236 42.5242 13.2141C43.4106 12.7104 44.5377 13.0204 45.0415 13.9068C45.5454 14.7933 45.2353 15.9203 44.3488 16.4242C43.8239 16.7226 43.3131 17.0345 42.8143 17.3563C44.9302 18.1131 47.0209 19.363 48.5366 21.143C49.1435 21.3185 50.2436 21.5934 51.307 21.6371C53.1747 21.7156 54.4244 23.5944 53.771 25.3457C52.3664 29.11 49.4555 31.5662 45.4565 31.145C44.9897 31.4019 44.1483 31.9573 43.3038 32.9713C54.3085 34.4382 51.4996 34.0757 56.2274 34.6478C56.8508 34.0244 57.4901 33.385 58.1473 32.728C64.6178 26.2531 64.6177 15.7201 58.1469 9.24795C52.0599 3.1596 42.3937 2.77964 35.8664 8.15978C35.1055 8.78405 34.9463 8.96252 31.5 12.413C28.1297 9.03858 27.9006 8.7891 27.1368 8.16249C20.5557 2.73792 10.8947 3.20514 4.8531 9.24795C-1.61766 15.7201 -1.61778 26.2533 4.85323 32.7284C12.6469 40.5217 18.0407 45.9177 21.7766 49.6562V46.5201Z" fill="#EEB1A0"/>
<path d="M42.1825 36.547C40.968 36.4968 39.6078 36.0498 39.762 36.0965C35.5402 34.8201 32.1289 31.5806 29.748 27.8617C28.543 25.9881 27.5155 23.7991 27.4017 23.4189C27.3941 23.3947 26.3726 20.188 23.795 19.2039C23.4477 19.0714 23.0813 18.9857 22.698 18.9424C22.7787 19.9988 23.0269 21.2887 23.6801 22.3722C24.2065 23.2454 23.9253 24.38 23.052 24.9064C22.1769 25.4338 21.0431 25.1499 20.5177 24.2783C19.602 22.7591 19.2038 21.0826 19.0521 19.6352C17.3613 20.3659 17.2182 20.7959 16.3695 20.7959H11.3576C11.1059 20.7959 10.8763 20.9151 10.7725 21.0998C10.4819 21.6162 11.1868 22.847 13.4157 24.4344C14.4963 25.2044 15.7638 25.7464 17.1835 26.0455C18.7537 26.377 20.9905 27.4725 22.7327 30.81C24.5482 34.2881 25.4688 39.5735 25.4688 46.5198V53.3517C30.5513 58.4389 30.2715 58.1879 30.5893 58.3685C30.8699 58.5278 31.1218 58.6222 31.4998 58.6143C31.8161 58.6214 32.0853 58.549 32.3336 58.4117C32.7912 58.1798 31.0887 59.7887 52.9093 37.9655C51.4637 37.791 53.4966 38.0552 42.1825 36.547Z" fill="#EEB1A0"/>
<path d="M45.4807 27.422C47.348 27.7481 48.7944 26.9988 49.7929 25.193C48.2046 24.9558 46.9046 24.5028 46.8356 24.4784C46.4922 24.3576 46.1924 24.1378 45.9735 23.847C44.3513 21.6905 41.3944 20.5069 39.0546 20.2263C36.8251 22.2449 35.0236 24.5416 33.6846 27.0719C35.5671 29.6216 37.6564 31.2271 39.439 32.0293C41.5735 28.6375 44.3866 27.5598 44.5209 27.5099C44.8275 27.3962 45.1586 27.3659 45.4807 27.422Z" fill="#EEB1A0"/>
</g>
<defs>
<clipPath id="clip0_10_786">
<rect width="63" height="63" fill="white"/>
</clipPath>
</defs>
</svg>
