<svg id="layer_1" enable-background="new 0 0 32 32" height="512" viewBox="0 0 32 32" width="512" xmlns="http://www.w3.org/2000/svg"><path d="m16.9199829 22.0899658v-2.0700073c0-.5599976.4500122-1 1-1h2.0800171v-1.8499756h-2.0800171c-.5499878 0-1-.4500122-1-1v-2.0800171h-1.8399658v2.0800171c0 .5499878-.4500122 1-1 1h-2.0800171v1.8499756h2.0800171c.5499878 0 1 .4400024 1 1v2.0700073z"/><path d="m8.7700195 6.1900024c-1.6500244 0-3 1.3499756-3 3v17.8099976c0 1.6499634 1.3499756 3 3 3h14.4599609c1.6500244 0 3-1.3500366 3-3v-17.8099976c0-1.6600342-1.3499756-3-3-3h-.039978v3.0999756c0 1.6600342-1.3400269 3-3 3h-2.4099731c.6799927.3200073 1.1399536 1.0100098 1.1399536 1.7999878v1.0800171h1.0800171c1.0999756 0 2 .9000244 2 2v1.8499756c0 1.1000366-.9000244 2-2 2h-1.0800171v1.0700073c0 1.1100464-.8899536 2-2 2h-1.8399658c-1.1100464 0-2-.8899536-2-2v-1.0700073h-1.0800171c-1.0999756 0-2-.8999634-2-2v-1.8499756c0-1.0999756.9000244-2 2-2h1.0800171v-1.0800171c0-.789978.4599609-1.4799805 1.1399536-1.7999878h-2.4099731c-1.6599731 0-3-1.3399658-3-3v-3.0999756z"/><path d="m21.1900024 9.289978v-4.1900024c0-.5599976-.4400024-1-1-1h-1.2600098c-.4099731-1.2199707-1.5700072-2.0999756-2.9299926-2.0999756s-2.5100098.8800049-2.9299927 2.0999756h-1.2600098c-.5499878 0-1 .4400024-1 1v4.1900024c0 .5499878.4500122 1 1 1h8.3800049c.5599976 0 1-.4500122 1-1z"/></svg>